<?xml version="1.0" encoding="UTF-8" standalone="no"?>
<!DOCTYPE svg PUBLIC "-//W3C//DTD SVG 1.1//EN" "http://www.w3.org/Graphics/SVG/1.1/DTD/svg11.dtd">
<svg width="100%" height="100%" viewBox="0 0 400 200" version="1.1" xmlns="http://www.w3.org/2000/svg" xmlns:xlink="http://www.w3.org/1999/xlink" xml:space="preserve" style="fill-rule:evenodd;clip-rule:evenodd;stroke-linecap:round;stroke-linejoin:round;stroke-miterlimit:5;">
    <rect id="computing" x="0" y="0" width="400" height="200" style="fill:rgb(38,38,38);"/>
    <clipPath id="_clip1">
        <rect id="computing1" x="0" y="0" width="400" height="200"/>
    </clipPath>
    <g clip-path="url(#_clip1)">
        <g transform="matrix(1.25,0,0,1,-100,0)">
            <rect x="200" y="0" width="200" height="200" style="fill:rgb(255,241,221);"/>
        </g>
        <g transform="matrix(0.438249,0,0,0.70016,11.8366,10.674)">
            <rect x="7.218" y="6.179" width="159.727" height="14.282" style="fill:rgb(255,163,120);"/>
        </g>
        <g transform="matrix(0.187821,0,0,0.70016,93.6443,10.674)">
            <rect x="7.218" y="6.179" width="159.727" height="14.282" style="fill:rgb(96,174,255);"/>
        </g>
        <g transform="matrix(0.313035,0,0,0.70016,22.7405,30.674)">
            <rect x="7.218" y="6.179" width="159.727" height="14.282" style="fill:rgb(255,102,102);"/>
        </g>
        <g transform="matrix(0.438249,0,0,0.70016,21.8366,50.674)">
            <rect x="7.218" y="6.179" width="159.727" height="14.282" style="fill:rgb(255,235,96);"/>
        </g>
        <g transform="matrix(0.250428,0,0,0.70016,23.1924,70.674)">
            <rect x="7.218" y="6.179" width="159.727" height="14.282" style="fill:rgb(255,102,102);"/>
        </g>
        <g transform="matrix(0.500856,0,0,0.70016,31.3847,90.674)">
            <rect x="7.218" y="6.179" width="159.727" height="14.282" style="fill:rgb(90,90,90);"/>
        </g>
        <g transform="matrix(0.313035,0,0,0.70016,32.7405,110.674)">
            <rect x="7.218" y="6.179" width="159.727" height="14.282" style="fill:rgb(255,235,96);"/>
        </g>
        <g transform="matrix(0.187821,0,0,0.70016,23.6443,130.674)">
            <rect x="7.218" y="6.179" width="159.727" height="14.282" style="fill:rgb(255,163,120);"/>
        </g>
        <g transform="matrix(0.438249,0,0,0.70016,31.8366,150.674)">
            <rect x="7.218" y="6.179" width="159.727" height="14.282" style="fill:rgb(255,102,102);"/>
        </g>
        <g transform="matrix(0.125214,0,0,0.70016,24.0962,170.674)">
            <rect x="7.218" y="6.179" width="159.727" height="14.282" style="fill:rgb(96,174,255);"/>
        </g>
        <g transform="matrix(0.187821,0,0,0.70016,73.6443,70.674)">
            <rect x="7.218" y="6.179" width="159.727" height="14.282" style="fill:rgb(96,174,255);"/>
        </g>
        <g transform="matrix(0.125214,0,0,0.70016,114.096,70.674)">
            <rect x="7.218" y="6.179" width="159.727" height="14.282" style="fill:rgb(90,90,90);"/>
        </g>
        <g transform="matrix(0.714286,0,0,0.714286,-383.61,-183.714)">
            <g transform="matrix(1.02769,0,0,1.02207,197.465,48.7336)">
                <rect x="580.513" y="261.116" width="249.102" height="156.546" style="fill:rgb(64,64,64);"/>
                <path d="M830.319,255.288L831.012,255.416L831.685,255.627L832.328,255.918L832.931,256.285L833.486,256.722L833.985,257.223L834.42,257.781L834.785,258.388L835.074,259.034L835.284,259.711L835.411,260.408L835.453,261.116L835.453,417.662L835.411,418.369L835.284,419.067L835.074,419.744L834.785,420.39L834.42,420.997L833.985,421.555L833.486,422.056L832.931,422.493L832.328,422.86L831.685,423.151L831.012,423.362L830.319,423.489L829.615,423.532L580.513,423.532L579.81,423.489L579.116,423.362L578.443,423.151L577.8,422.86L577.197,422.493L576.642,422.056L576.143,421.555L575.709,420.997L575.344,420.39L575.054,419.744L574.845,419.067L574.718,418.369L574.675,417.662L574.675,261.116L574.718,260.408L574.845,259.711L575.054,259.034L575.344,258.388L575.709,257.781L576.143,257.223L576.642,256.722L577.197,256.285L577.8,255.918L578.443,255.627L579.116,255.416L579.81,255.288L580.513,255.246L829.615,255.246L830.319,255.288ZM580.513,261.116L580.513,417.662L829.615,417.662L829.615,261.116L580.513,261.116Z"/>
            </g>
            <g transform="matrix(1.02769,0,0,1.02207,197.465,48.7336)">
                <path d="M829.615,261.116L580.513,417.662L829.615,417.662L829.615,261.116Z" style="fill:rgb(51,51,51);"/>
            </g>
            <g transform="matrix(1.0123,0,0,1.61273,215.249,-260.62)">
                <rect x="559.916" y="456.995" width="276.597" height="4.961" style="fill:rgb(230,230,230);stroke:black;stroke-width:2.23px;"/>
            </g>
        </g>
    </g>
</svg>
