<?xml version="1.0" encoding="UTF-8" standalone="no"?><!DOCTYPE svg PUBLIC "-//W3C//DTD SVG 1.1//EN" "http://www.w3.org/Graphics/SVG/1.1/DTD/svg11.dtd"><svg width="100%" height="100%" viewBox="0 0 300 200" version="1.1" xmlns="http://www.w3.org/2000/svg" xmlns:xlink="http://www.w3.org/1999/xlink" xml:space="preserve" style="fill-rule:evenodd;clip-rule:evenodd;stroke-linejoin:round;stroke-miterlimit:1.5;"><rect id="zombie" x="0" y="0" width="300" height="200" style="fill:#edf6fd;"/><circle cx="213.064" cy="32.753" r="5" style="fill:#ff6757;"/><circle cx="199.172" cy="20.488" r="5" style="fill:#ff6757;"/><circle cx="230.618" cy="45.965" r="5" style="fill:#ff6757;"/><circle cx="228" cy="13.449" r="5" style="fill:#ff6757;"/><circle cx="253.217" cy="34.779" r="5" style="fill:#ff6757;"/><circle cx="258" cy="7.441" r="5" style="fill:#ff6757;"/><path d="M230.936,74.766c0,2.76 -2.241,5 -5,5c-2.76,0 -5,-2.24 -5,-5c0,-2.759 2.24,-5 5,-5c2.759,0 5,2.241 5,5Z" style="fill:#6680ae;"/><path d="M258.394,81.792c0,2.76 -2.24,5 -5,5c-2.759,0 -5,-2.24 -5,-5c0,-2.759 2.241,-5 5,-5c2.76,0 5,2.241 5,5Z" style="fill:#6680ae;"/><path d="M199.172,67.487c0,2.759 -2.241,5 -5,5c-2.76,0 -5,-2.241 -5,-5c0,-2.76 2.24,-5 5,-5c2.759,0 5,2.24 5,5Z" style="fill:#6680ae;"/><path d="M170.936,64.445c0,2.76 -2.241,5 -5,5c-2.76,0 -5,-2.24 -5,-5c0,-2.759 2.24,-5 5,-5c2.759,0 5,2.241 5,5Z" style="fill:#6680ae;"/><path d="M174.81,17.488c0,2.76 -2.24,5 -5,5c-2.759,0 -5,-2.24 -5,-5c0,-2.76 2.241,-5 5,-5c2.76,0 5,2.24 5,5Z" style="fill:#6680ae;"/><path d="M244.096,106.987c0,2.759 -2.241,5 -5,5c-2.76,0 -5,-2.241 -5,-5c0,-2.76 2.24,-5 5,-5c2.759,0 5,2.24 5,5Z" style="fill:#6680ae;"/><path d="M273.511,118.188c0,2.759 -2.241,5 -5,5c-2.76,0 -5,-2.241 -5,-5c0,-2.76 2.24,-5 5,-5c2.759,0 5,2.24 5,5Z" style="fill:#6680ae;"/><path d="M283.511,92.853c0,2.76 -2.241,5 -5,5c-2.76,0 -5,-2.24 -5,-5c0,-2.759 2.24,-5 5,-5c2.759,0 5,2.241 5,5Z" style="fill:#6680ae;"/><path d="M291.469,37.854c0,2.76 -2.24,5 -5,5c-2.76,0 -5,-2.24 -5,-5c0,-2.759 2.24,-5 5,-5c2.76,0 5,2.241 5,5Z" style="fill:#6680ae;"/><path d="M175.566,188.831c0,2.76 -2.241,5 -5,5c-2.76,0 -5,-2.24 -5,-5c0,-2.759 2.24,-5 5,-5c2.759,0 5,2.241 5,5Z" style="fill:#6680ae;"/><path d="M274.43,72.487c0,2.759 -2.24,5 -5,5c-2.759,0 -5,-2.241 -5,-5c0,-2.76 2.241,-5 5,-5c2.76,0 5,2.24 5,5Z" style="fill:#6680ae;"/><path d="M179.81,47.331c0,2.759 -2.24,5 -5,5c-2.759,0 -5,-2.241 -5,-5c0,-2.76 2.241,-5 5,-5c2.76,0 5,2.24 5,5Z" style="fill:#6680ae;"/><path d="M166.22,109.351c0,2.759 -2.241,5 -5,5c-2.76,0 -5,-2.241 -5,-5c0,-2.76 2.24,-5 5,-5c2.759,0 5,2.24 5,5Z" style="fill:#6680ae;"/><path d="M171.498,136.54c0,2.759 -2.241,5 -5,5c-2.76,0 -5,-2.241 -5,-5c0,-2.76 2.24,-5 5,-5c2.759,0 5,2.24 5,5Z" style="fill:#6680ae;"/><path d="M293.941,132.542c0,2.759 -2.24,5 -5,5c-2.759,0 -5,-2.241 -5,-5c0,-2.76 2.241,-5 5,-5c2.76,0 5,2.24 5,5Z" style="fill:#6680ae;"/><path d="M179.735,162.645c0,2.76 -2.241,5 -5,5c-2.76,0 -5,-2.24 -5,-5c0,-2.759 2.24,-5 5,-5c2.759,0 5,2.241 5,5Z" style="fill:#6680ae;"/><path d="M231.636,156.889c0,2.76 -2.241,5 -5,5c-2.76,0 -5,-2.24 -5,-5c0,-2.76 2.24,-5 5,-5c2.759,0 5,2.24 5,5Z" style="fill:#6680ae;"/><path d="M217.901,186.386c0,2.76 -2.24,5 -5,5c-2.759,0 -5,-2.24 -5,-5c0,-2.759 2.241,-5 5,-5c2.76,0 5,2.241 5,5Z" style="fill:#6680ae;"/><path d="M233.6,183.968c0,2.76 -2.24,5 -5,5c-2.759,0 -5,-2.24 -5,-5c0,-2.759 2.241,-5 5,-5c2.76,0 5,2.241 5,5Z" style="fill:#6680ae;"/><path d="M263.396,186.33c0,2.759 -2.241,5 -5,5c-2.76,0 -5,-2.241 -5,-5c0,-2.76 2.24,-5 5,-5c2.759,0 5,2.24 5,5Z" style="fill:#6680ae;"/><path d="M298.517,182.935c0,2.76 -2.241,5 -5,5c-2.76,0 -5,-2.24 -5,-5c0,-2.76 2.24,-5 5,-5c2.759,0 5,2.24 5,5Z" style="fill:#6680ae;"/><path d="M274.773,167.018c0,2.76 -2.24,5 -5,5c-2.759,0 -5,-2.24 -5,-5c0,-2.759 2.241,-5 5,-5c2.76,0 5,2.241 5,5Z" style="fill:#6680ae;"/><path d="M196.813,166.29c0,2.759 -2.241,5 -5,5c-2.76,0 -5,-2.241 -5,-5c0,-2.76 2.24,-5 5,-5c2.759,0 5,2.24 5,5Z" style="fill:#6680ae;"/><path d="M210.936,105.965c0,2.759 -2.241,5 -5,5c-2.76,0 -5,-2.241 -5,-5c0,-2.76 2.24,-5 5,-5c2.759,0 5,2.24 5,5Z" style="fill:#6680ae;"/><path d="M180.936,83.618c0,2.76 -2.241,5 -5,5c-2.76,0 -5,-2.24 -5,-5c0,-2.76 2.24,-5 5,-5c2.759,0 5,2.24 5,5Z" style="fill:#6680ae;"/><path d="M245.936,130.137c0,2.76 -2.241,5 -5,5c-2.76,0 -5,-2.24 -5,-5c0,-2.759 2.24,-5 5,-5c2.759,0 5,2.241 5,5Z" style="fill:#6680ae;"/><path d="M215.936,133.88c0,2.759 -2.241,5 -5,5c-2.76,0 -5,-2.241 -5,-5c0,-2.76 2.24,-5 5,-5c2.759,0 5,2.24 5,5Z" style="fill:#6680ae;"/><path d="M196.192,127.878c0,2.76 -2.241,5 -5,5c-2.76,0 -5,-2.24 -5,-5c0,-2.759 2.24,-5 5,-5c2.759,0 5,2.241 5,5Z" style="fill:#6680ae;"/><rect x="0" y="0" width="150" height="200" style="fill:#364354;"/><path d="M15,20l55.447,0" style="fill:none;stroke:#5b6e81;stroke-width:10px;"/><path d="M75.469,20l48.864,0" style="fill:none;stroke:#5b6e81;stroke-width:10px;"/><path d="M25.667,40l109.333,0" style="fill:none;stroke:#5b6e81;stroke-width:10px;"/><path d="M25.667,60l109.333,0" style="fill:none;stroke:#5b6e81;stroke-width:10px;"/><path d="M15,80l55.144,0" style="fill:none;stroke:#5b6e81;stroke-width:10px;"/><path d="M15,180l55.144,0" style="fill:none;stroke:#5b6e81;stroke-width:10px;"/><path d="M88.977,100l31.172,0" style="fill:none;stroke:#5b6e81;stroke-width:10px;"/><path d="M25.667,100l58.339,0" style="fill:none;stroke:#5b6e81;stroke-width:10px;"/><path d="M25.667,160l63.31,0" style="fill:none;stroke:#5b6e81;stroke-width:10px;"/><path d="M34.885,120l85.188,0" style="fill:none;stroke:#5b6e81;stroke-width:10px;"/><path d="M34.885,140l85.188,0" style="fill:none;stroke:#5b6e81;stroke-width:10px;"/></svg>